<svg xmlns="http://www.w3.org/2000/svg" xmlns:xlink="http://www.w3.org/1999/xlink" width="11" height="11" viewBox="0 0 11 11"><defs><style>.a{fill:#fff;}.b{fill:none;}.c{clip-path:url(#a);}.d{clip-path:url(#b);}.e{fill:#ae0721;}</style><clipPath id="a"><rect class="a" width="11" height="11" transform="translate(5 1620)"/></clipPath><clipPath id="b"><rect class="b" width="83.274" height="588.274"/></clipPath></defs><g class="c" transform="translate(-5 -1620)"><g class="d" transform="translate(5.197 1620.14)"><g transform="translate(-2723.434 -3423.64)"><rect class="e" width="5.552" height="5.552" transform="translate(2723.434 3423.64)"/><rect class="e" width="5.552" height="5.552" transform="translate(2734.537 3423.64)"/><rect class="e" width="5.552" height="5.552" transform="translate(2745.641 3423.64)"/><rect class="e" width="5.552" height="5.552" transform="translate(2756.744 3423.64)"/><rect class="e" width="5.552" height="5.552" transform="translate(2767.847 3423.64)"/><rect class="e" width="5.552" height="5.552" transform="translate(2778.95 3423.64)"/><rect class="e" width="5.552" height="5.552" transform="translate(2790.054 3423.64)"/><rect class="e" width="5.552" height="5.552" transform="translate(2801.157 3423.64)"/><rect class="e" width="5.552" height="5.552" transform="translate(2723.434 3434.743)"/><rect class="e" width="5.552" height="5.552" transform="translate(2734.537 3434.743)"/><rect class="e" width="5.552" height="5.552" transform="translate(2745.641 3434.743)"/><rect class="e" width="5.552" height="5.552" transform="translate(2756.744 3434.743)"/><rect class="e" width="5.552" height="5.552" transform="translate(2767.847 3434.743)"/><rect class="e" width="5.552" height="5.552" transform="translate(2778.95 3434.743)"/><rect class="e" width="5.552" height="5.552" transform="translate(2790.054 3434.743)"/><rect class="e" width="5.552" height="5.552" transform="translate(2801.157 3434.743)"/><rect class="e" width="5.552" height="5.552" transform="translate(2723.434 3445.847)"/><rect class="e" width="5.552" height="5.552" transform="translate(2734.537 3445.847)"/><rect class="e" width="5.552" height="5.552" transform="translate(2745.641 3445.847)"/><rect class="e" width="5.552" height="5.552" transform="translate(2756.744 3445.847)"/><rect class="e" width="5.552" height="5.552" transform="translate(2767.847 3445.847)"/><rect class="e" width="5.552" height="5.552" transform="translate(2778.95 3445.847)"/><rect class="e" width="5.552" height="5.552" transform="translate(2790.054 3445.847)"/><rect class="e" width="5.552" height="5.552" transform="translate(2801.157 3445.847)"/><rect class="e" width="5.552" height="5.552" transform="translate(2723.434 3456.95)"/><rect class="e" width="5.552" height="5.552" transform="translate(2734.537 3456.95)"/><rect class="e" width="5.552" height="5.552" transform="translate(2745.641 3456.95)"/><rect class="e" width="5.552" height="5.552" transform="translate(2756.744 3456.95)"/><rect class="e" width="5.552" height="5.552" transform="translate(2767.847 3456.95)"/><rect class="e" width="5.552" height="5.552" transform="translate(2778.95 3456.95)"/><rect class="e" width="5.552" height="5.552" transform="translate(2790.054 3456.95)"/><rect class="e" width="5.552" height="5.552" transform="translate(2801.157 3456.95)"/><rect class="e" width="5.552" height="5.552" transform="translate(2723.434 3468.053)"/><rect class="e" width="5.552" height="5.552" transform="translate(2734.537 3468.053)"/><rect class="e" width="5.552" height="5.552" transform="translate(2745.641 3468.053)"/><rect class="e" width="5.552" height="5.552" transform="translate(2756.744 3468.053)"/><rect class="e" width="5.552" height="5.552" transform="translate(2767.847 3468.053)"/><rect class="e" width="5.552" height="5.552" transform="translate(2778.95 3468.053)"/><rect class="e" width="5.552" height="5.552" transform="translate(2790.054 3468.053)"/><rect class="e" width="5.552" height="5.552" transform="translate(2801.157 3468.053)"/><rect class="e" width="5.552" height="5.552" transform="translate(2723.434 3479.156)"/><rect class="e" width="5.552" height="5.552" transform="translate(2734.537 3479.156)"/><rect class="e" width="5.552" height="5.552" transform="translate(2745.641 3479.156)"/><rect class="e" width="5.552" height="5.552" transform="translate(2756.744 3479.156)"/><rect class="e" width="5.552" height="5.552" transform="translate(2767.847 3479.156)"/><rect class="e" width="5.552" height="5.552" transform="translate(2778.95 3479.156)"/><rect class="e" width="5.552" height="5.552" transform="translate(2790.054 3479.156)"/><rect class="e" width="5.552" height="5.552" transform="translate(2801.157 3479.156)"/><rect class="e" width="5.552" height="5.552" transform="translate(2723.434 3490.26)"/><rect class="e" width="5.552" height="5.552" transform="translate(2734.537 3490.26)"/><rect class="e" width="5.552" height="5.552" transform="translate(2745.641 3490.26)"/><rect class="e" width="5.552" height="5.552" transform="translate(2756.744 3490.26)"/><rect class="e" width="5.552" height="5.552" transform="translate(2767.847 3490.26)"/><rect class="e" width="5.552" height="5.552" transform="translate(2778.95 3490.26)"/><rect class="e" width="5.552" height="5.552" transform="translate(2790.054 3490.26)"/><rect class="e" width="5.552" height="5.552" transform="translate(2801.157 3490.26)"/><rect class="e" width="5.552" height="5.552" transform="translate(2723.434 3501.363)"/><rect class="e" width="5.552" height="5.552" transform="translate(2734.537 3501.363)"/><rect class="e" width="5.552" height="5.552" transform="translate(2745.641 3501.363)"/><rect class="e" width="5.552" height="5.552" transform="translate(2756.744 3501.363)"/><rect class="e" width="5.552" height="5.552" transform="translate(2767.847 3501.363)"/><rect class="e" width="5.552" height="5.552" transform="translate(2778.95 3501.363)"/><rect class="e" width="5.552" height="5.552" transform="translate(2790.054 3501.363)"/><rect class="e" width="5.552" height="5.552" transform="translate(2801.157 3501.363)"/></g><g transform="translate(-2723.434 -3334.64)"><rect class="e" width="5.552" height="5.552" transform="translate(2723.434 3423.64)"/><rect class="e" width="5.552" height="5.552" transform="translate(2734.537 3423.64)"/><rect class="e" width="5.552" height="5.552" transform="translate(2745.641 3423.64)"/><rect class="e" width="5.552" height="5.552" transform="translate(2756.744 3423.64)"/><rect class="e" width="5.552" height="5.552" transform="translate(2767.847 3423.64)"/><rect class="e" width="5.552" height="5.552" transform="translate(2778.95 3423.64)"/><rect class="e" width="5.552" height="5.552" transform="translate(2790.054 3423.64)"/><rect class="e" width="5.552" height="5.552" transform="translate(2801.157 3423.64)"/><rect class="e" width="5.552" height="5.552" transform="translate(2723.434 3434.743)"/><rect class="e" width="5.552" height="5.552" transform="translate(2734.537 3434.743)"/><rect class="e" width="5.552" height="5.552" transform="translate(2745.641 3434.743)"/><rect class="e" width="5.552" height="5.552" transform="translate(2756.744 3434.743)"/><rect class="e" width="5.552" height="5.552" transform="translate(2767.847 3434.743)"/><rect class="e" width="5.552" height="5.552" transform="translate(2778.95 3434.743)"/><rect class="e" width="5.552" height="5.552" transform="translate(2790.054 3434.743)"/><rect class="e" width="5.552" height="5.552" transform="translate(2801.157 3434.743)"/><rect class="e" width="5.552" height="5.552" transform="translate(2723.434 3445.847)"/><rect class="e" width="5.552" height="5.552" transform="translate(2734.537 3445.847)"/><rect class="e" width="5.552" height="5.552" transform="translate(2745.641 3445.847)"/><rect class="e" width="5.552" height="5.552" transform="translate(2756.744 3445.847)"/><rect class="e" width="5.552" height="5.552" transform="translate(2767.847 3445.847)"/><rect class="e" width="5.552" height="5.552" transform="translate(2778.95 3445.847)"/><rect class="e" width="5.552" height="5.552" transform="translate(2790.054 3445.847)"/><rect class="e" width="5.552" height="5.552" transform="translate(2801.157 3445.847)"/><rect class="e" width="5.552" height="5.552" transform="translate(2723.434 3456.95)"/><rect class="e" width="5.552" height="5.552" transform="translate(2734.537 3456.95)"/><rect class="e" width="5.552" height="5.552" transform="translate(2745.641 3456.95)"/><rect class="e" width="5.552" height="5.552" transform="translate(2756.744 3456.95)"/><rect class="e" width="5.552" height="5.552" transform="translate(2767.847 3456.95)"/><rect class="e" width="5.552" height="5.552" transform="translate(2778.95 3456.95)"/><rect class="e" width="5.552" height="5.552" transform="translate(2790.054 3456.95)"/><rect class="e" width="5.552" height="5.552" transform="translate(2801.157 3456.95)"/><rect class="e" width="5.552" height="5.552" transform="translate(2723.434 3468.053)"/><rect class="e" width="5.552" height="5.552" transform="translate(2734.537 3468.053)"/><rect class="e" width="5.552" height="5.552" transform="translate(2745.641 3468.053)"/><rect class="e" width="5.552" height="5.552" transform="translate(2756.744 3468.053)"/><rect class="e" width="5.552" height="5.552" transform="translate(2767.847 3468.053)"/><rect class="e" width="5.552" height="5.552" transform="translate(2778.95 3468.053)"/><rect class="e" width="5.552" height="5.552" transform="translate(2790.054 3468.053)"/><rect class="e" width="5.552" height="5.552" transform="translate(2801.157 3468.053)"/><rect class="e" width="5.552" height="5.552" transform="translate(2723.434 3479.156)"/><rect class="e" width="5.552" height="5.552" transform="translate(2734.537 3479.156)"/><rect class="e" width="5.552" height="5.552" transform="translate(2745.641 3479.156)"/><rect class="e" width="5.552" height="5.552" transform="translate(2756.744 3479.156)"/><rect class="e" width="5.552" height="5.552" transform="translate(2767.847 3479.156)"/><rect class="e" width="5.552" height="5.552" transform="translate(2778.95 3479.156)"/><rect class="e" width="5.552" height="5.552" transform="translate(2790.054 3479.156)"/><rect class="e" width="5.552" height="5.552" transform="translate(2801.157 3479.156)"/><rect class="e" width="5.552" height="5.552" transform="translate(2723.434 3490.26)"/><rect class="e" width="5.552" height="5.552" transform="translate(2734.537 3490.26)"/><rect class="e" width="5.552" height="5.552" transform="translate(2745.641 3490.26)"/><rect class="e" width="5.552" height="5.552" transform="translate(2756.744 3490.26)"/><rect class="e" width="5.552" height="5.552" transform="translate(2767.847 3490.26)"/><rect class="e" width="5.552" height="5.552" transform="translate(2778.95 3490.26)"/><rect class="e" width="5.552" height="5.552" transform="translate(2790.054 3490.26)"/><rect class="e" width="5.552" height="5.552" transform="translate(2801.157 3490.26)"/><rect class="e" width="5.552" height="5.552" transform="translate(2723.434 3501.363)"/><rect class="e" width="5.552" height="5.552" transform="translate(2734.537 3501.363)"/><rect class="e" width="5.552" height="5.552" transform="translate(2745.641 3501.363)"/><rect class="e" width="5.552" height="5.552" transform="translate(2756.744 3501.363)"/><rect class="e" width="5.552" height="5.552" transform="translate(2767.847 3501.363)"/><rect class="e" width="5.552" height="5.552" transform="translate(2778.95 3501.363)"/><rect class="e" width="5.552" height="5.552" transform="translate(2790.054 3501.363)"/><rect class="e" width="5.552" height="5.552" transform="translate(2801.157 3501.363)"/></g><g transform="translate(-2723.434 -3245.64)"><rect class="e" width="5.552" height="5.552" transform="translate(2723.434 3423.64)"/><rect class="e" width="5.552" height="5.552" transform="translate(2734.537 3423.64)"/><rect class="e" width="5.552" height="5.552" transform="translate(2745.641 3423.64)"/><rect class="e" width="5.552" height="5.552" transform="translate(2756.744 3423.64)"/><rect class="e" width="5.552" height="5.552" transform="translate(2767.847 3423.64)"/><rect class="e" width="5.552" height="5.552" transform="translate(2778.95 3423.64)"/><rect class="e" width="5.552" height="5.552" transform="translate(2790.054 3423.64)"/><rect class="e" width="5.552" height="5.552" transform="translate(2801.157 3423.64)"/><rect class="e" width="5.552" height="5.552" transform="translate(2723.434 3434.743)"/><rect class="e" width="5.552" height="5.552" transform="translate(2734.537 3434.743)"/><rect class="e" width="5.552" height="5.552" transform="translate(2745.641 3434.743)"/><rect class="e" width="5.552" height="5.552" transform="translate(2756.744 3434.743)"/><rect class="e" width="5.552" height="5.552" transform="translate(2767.847 3434.743)"/><rect class="e" width="5.552" height="5.552" transform="translate(2778.95 3434.743)"/><rect class="e" width="5.552" height="5.552" transform="translate(2790.054 3434.743)"/><rect class="e" width="5.552" height="5.552" transform="translate(2801.157 3434.743)"/><rect class="e" width="5.552" height="5.552" transform="translate(2723.434 3445.847)"/><rect class="e" width="5.552" height="5.552" transform="translate(2734.537 3445.847)"/><rect class="e" width="5.552" height="5.552" transform="translate(2745.641 3445.847)"/><rect class="e" width="5.552" height="5.552" transform="translate(2756.744 3445.847)"/><rect class="e" width="5.552" height="5.552" transform="translate(2767.847 3445.847)"/><rect class="e" width="5.552" height="5.552" transform="translate(2778.95 3445.847)"/><rect class="e" width="5.552" height="5.552" transform="translate(2790.054 3445.847)"/><rect class="e" width="5.552" height="5.552" transform="translate(2801.157 3445.847)"/><rect class="e" width="5.552" height="5.552" transform="translate(2723.434 3456.95)"/><rect class="e" width="5.552" height="5.552" transform="translate(2734.537 3456.95)"/><rect class="e" width="5.552" height="5.552" transform="translate(2745.641 3456.95)"/><rect class="e" width="5.552" height="5.552" transform="translate(2756.744 3456.95)"/><rect class="e" width="5.552" height="5.552" transform="translate(2767.847 3456.95)"/><rect class="e" width="5.552" height="5.552" transform="translate(2778.95 3456.95)"/><rect class="e" width="5.552" height="5.552" transform="translate(2790.054 3456.95)"/><rect class="e" width="5.552" height="5.552" transform="translate(2801.157 3456.95)"/><rect class="e" width="5.552" height="5.552" transform="translate(2723.434 3468.053)"/><rect class="e" width="5.552" height="5.552" transform="translate(2734.537 3468.053)"/><rect class="e" width="5.552" height="5.552" transform="translate(2745.641 3468.053)"/><rect class="e" width="5.552" height="5.552" transform="translate(2756.744 3468.053)"/><rect class="e" width="5.552" height="5.552" transform="translate(2767.847 3468.053)"/><rect class="e" width="5.552" height="5.552" transform="translate(2778.95 3468.053)"/><rect class="e" width="5.552" height="5.552" transform="translate(2790.054 3468.053)"/><rect class="e" width="5.552" height="5.552" transform="translate(2801.157 3468.053)"/><rect class="e" width="5.552" height="5.552" transform="translate(2723.434 3479.156)"/><rect class="e" width="5.552" height="5.552" transform="translate(2734.537 3479.156)"/><rect class="e" width="5.552" height="5.552" transform="translate(2745.641 3479.156)"/><rect class="e" width="5.552" height="5.552" transform="translate(2756.744 3479.156)"/><rect class="e" width="5.552" height="5.552" transform="translate(2767.847 3479.156)"/><rect class="e" width="5.552" height="5.552" transform="translate(2778.95 3479.156)"/><rect class="e" width="5.552" height="5.552" transform="translate(2790.054 3479.156)"/><rect class="e" width="5.552" height="5.552" transform="translate(2801.157 3479.156)"/><rect class="e" width="5.552" height="5.552" transform="translate(2723.434 3490.26)"/><rect class="e" width="5.552" height="5.552" transform="translate(2734.537 3490.26)"/><rect class="e" width="5.552" height="5.552" transform="translate(2745.641 3490.26)"/><rect class="e" width="5.552" height="5.552" transform="translate(2756.744 3490.26)"/><rect class="e" width="5.552" height="5.552" transform="translate(2767.847 3490.26)"/><rect class="e" width="5.552" height="5.552" transform="translate(2778.95 3490.26)"/><rect class="e" width="5.552" height="5.552" transform="translate(2790.054 3490.26)"/><rect class="e" width="5.552" height="5.552" transform="translate(2801.157 3490.26)"/><rect class="e" width="5.552" height="5.552" transform="translate(2723.434 3501.363)"/><rect class="e" width="5.552" height="5.552" transform="translate(2734.537 3501.363)"/><rect class="e" width="5.552" height="5.552" transform="translate(2745.641 3501.363)"/><rect class="e" width="5.552" height="5.552" transform="translate(2756.744 3501.363)"/><rect class="e" width="5.552" height="5.552" transform="translate(2767.847 3501.363)"/><rect class="e" width="5.552" height="5.552" transform="translate(2778.95 3501.363)"/><rect class="e" width="5.552" height="5.552" transform="translate(2790.054 3501.363)"/><rect class="e" width="5.552" height="5.552" transform="translate(2801.157 3501.363)"/></g><g transform="translate(-2723.434 -3156.64)"><rect class="e" width="5.552" height="5.552" transform="translate(2723.434 3423.64)"/><rect class="e" width="5.552" height="5.552" transform="translate(2734.537 3423.64)"/><rect class="e" width="5.552" height="5.552" transform="translate(2745.641 3423.64)"/><rect class="e" width="5.552" height="5.552" transform="translate(2756.744 3423.64)"/><rect class="e" width="5.552" height="5.552" transform="translate(2767.847 3423.64)"/><rect class="e" width="5.552" height="5.552" transform="translate(2778.95 3423.64)"/><rect class="e" width="5.552" height="5.552" transform="translate(2790.054 3423.64)"/><rect class="e" width="5.552" height="5.552" transform="translate(2801.157 3423.64)"/><rect class="e" width="5.552" height="5.552" transform="translate(2723.434 3434.743)"/><rect class="e" width="5.552" height="5.552" transform="translate(2734.537 3434.743)"/><rect class="e" width="5.552" height="5.552" transform="translate(2745.641 3434.743)"/><rect class="e" width="5.552" height="5.552" transform="translate(2756.744 3434.743)"/><rect class="e" width="5.552" height="5.552" transform="translate(2767.847 3434.743)"/><rect class="e" width="5.552" height="5.552" transform="translate(2778.95 3434.743)"/><rect class="e" width="5.552" height="5.552" transform="translate(2790.054 3434.743)"/><rect class="e" width="5.552" height="5.552" transform="translate(2801.157 3434.743)"/><rect class="e" width="5.552" height="5.552" transform="translate(2723.434 3445.847)"/><rect class="e" width="5.552" height="5.552" transform="translate(2734.537 3445.847)"/><rect class="e" width="5.552" height="5.552" transform="translate(2745.641 3445.847)"/><rect class="e" width="5.552" height="5.552" transform="translate(2756.744 3445.847)"/><rect class="e" width="5.552" height="5.552" transform="translate(2767.847 3445.847)"/><rect class="e" width="5.552" height="5.552" transform="translate(2778.95 3445.847)"/><rect class="e" width="5.552" height="5.552" transform="translate(2790.054 3445.847)"/><rect class="e" width="5.552" height="5.552" transform="translate(2801.157 3445.847)"/><rect class="e" width="5.552" height="5.552" transform="translate(2723.434 3456.95)"/><rect class="e" width="5.552" height="5.552" transform="translate(2734.537 3456.95)"/><rect class="e" width="5.552" height="5.552" transform="translate(2745.641 3456.95)"/><rect class="e" width="5.552" height="5.552" transform="translate(2756.744 3456.95)"/><rect class="e" width="5.552" height="5.552" transform="translate(2767.847 3456.95)"/><rect class="e" width="5.552" height="5.552" transform="translate(2778.95 3456.95)"/><rect class="e" width="5.552" height="5.552" transform="translate(2790.054 3456.95)"/><rect class="e" width="5.552" height="5.552" transform="translate(2801.157 3456.95)"/><rect class="e" width="5.552" height="5.552" transform="translate(2723.434 3468.053)"/><rect class="e" width="5.552" height="5.552" transform="translate(2734.537 3468.053)"/><rect class="e" width="5.552" height="5.552" transform="translate(2745.641 3468.053)"/><rect class="e" width="5.552" height="5.552" transform="translate(2756.744 3468.053)"/><rect class="e" width="5.552" height="5.552" transform="translate(2767.847 3468.053)"/><rect class="e" width="5.552" height="5.552" transform="translate(2778.95 3468.053)"/><rect class="e" width="5.552" height="5.552" transform="translate(2790.054 3468.053)"/><rect class="e" width="5.552" height="5.552" transform="translate(2801.157 3468.053)"/><rect class="e" width="5.552" height="5.552" transform="translate(2723.434 3479.156)"/><rect class="e" width="5.552" height="5.552" transform="translate(2734.537 3479.156)"/><rect class="e" width="5.552" height="5.552" transform="translate(2745.641 3479.156)"/><rect class="e" width="5.552" height="5.552" transform="translate(2756.744 3479.156)"/><rect class="e" width="5.552" height="5.552" transform="translate(2767.847 3479.156)"/><rect class="e" width="5.552" height="5.552" transform="translate(2778.95 3479.156)"/><rect class="e" width="5.552" height="5.552" transform="translate(2790.054 3479.156)"/><rect class="e" width="5.552" height="5.552" transform="translate(2801.157 3479.156)"/><rect class="e" width="5.552" height="5.552" transform="translate(2723.434 3490.26)"/><rect class="e" width="5.552" height="5.552" transform="translate(2734.537 3490.26)"/><rect class="e" width="5.552" height="5.552" transform="translate(2745.641 3490.26)"/><rect class="e" width="5.552" height="5.552" transform="translate(2756.744 3490.26)"/><rect class="e" width="5.552" height="5.552" transform="translate(2767.847 3490.26)"/><rect class="e" width="5.552" height="5.552" transform="translate(2778.95 3490.26)"/><rect class="e" width="5.552" height="5.552" transform="translate(2790.054 3490.26)"/><rect class="e" width="5.552" height="5.552" transform="translate(2801.157 3490.26)"/><rect class="e" width="5.552" height="5.552" transform="translate(2723.434 3501.363)"/><rect class="e" width="5.552" height="5.552" transform="translate(2734.537 3501.363)"/><rect class="e" width="5.552" height="5.552" transform="translate(2745.641 3501.363)"/><rect class="e" width="5.552" height="5.552" transform="translate(2756.744 3501.363)"/><rect class="e" width="5.552" height="5.552" transform="translate(2767.847 3501.363)"/><rect class="e" width="5.552" height="5.552" transform="translate(2778.95 3501.363)"/><rect class="e" width="5.552" height="5.552" transform="translate(2790.054 3501.363)"/><rect class="e" width="5.552" height="5.552" transform="translate(2801.157 3501.363)"/></g><g transform="translate(-2723.434 -3067.64)"><rect class="e" width="5.552" height="5.552" transform="translate(2723.434 3423.64)"/><rect class="e" width="5.552" height="5.552" transform="translate(2734.537 3423.64)"/><rect class="e" width="5.552" height="5.552" transform="translate(2745.641 3423.64)"/><rect class="e" width="5.552" height="5.552" transform="translate(2756.744 3423.64)"/><rect class="e" width="5.552" height="5.552" transform="translate(2767.847 3423.64)"/><rect class="e" width="5.552" height="5.552" transform="translate(2778.95 3423.64)"/><rect class="e" width="5.552" height="5.552" transform="translate(2790.054 3423.64)"/><rect class="e" width="5.552" height="5.552" transform="translate(2801.157 3423.64)"/><rect class="e" width="5.552" height="5.552" transform="translate(2723.434 3434.743)"/><rect class="e" width="5.552" height="5.552" transform="translate(2734.537 3434.743)"/><rect class="e" width="5.552" height="5.552" transform="translate(2745.641 3434.743)"/><rect class="e" width="5.552" height="5.552" transform="translate(2756.744 3434.743)"/><rect class="e" width="5.552" height="5.552" transform="translate(2767.847 3434.743)"/><rect class="e" width="5.552" height="5.552" transform="translate(2778.95 3434.743)"/><rect class="e" width="5.552" height="5.552" transform="translate(2790.054 3434.743)"/><rect class="e" width="5.552" height="5.552" transform="translate(2801.157 3434.743)"/><rect class="e" width="5.552" height="5.552" transform="translate(2723.434 3445.847)"/><rect class="e" width="5.552" height="5.552" transform="translate(2734.537 3445.847)"/><rect class="e" width="5.552" height="5.552" transform="translate(2745.641 3445.847)"/><rect class="e" width="5.552" height="5.552" transform="translate(2756.744 3445.847)"/><rect class="e" width="5.552" height="5.552" transform="translate(2767.847 3445.847)"/><rect class="e" width="5.552" height="5.552" transform="translate(2778.95 3445.847)"/><rect class="e" width="5.552" height="5.552" transform="translate(2790.054 3445.847)"/><rect class="e" width="5.552" height="5.552" transform="translate(2801.157 3445.847)"/><rect class="e" width="5.552" height="5.552" transform="translate(2723.434 3456.95)"/><rect class="e" width="5.552" height="5.552" transform="translate(2734.537 3456.95)"/><rect class="e" width="5.552" height="5.552" transform="translate(2745.641 3456.95)"/><rect class="e" width="5.552" height="5.552" transform="translate(2756.744 3456.95)"/><rect class="e" width="5.552" height="5.552" transform="translate(2767.847 3456.95)"/><rect class="e" width="5.552" height="5.552" transform="translate(2778.95 3456.95)"/><rect class="e" width="5.552" height="5.552" transform="translate(2790.054 3456.95)"/><rect class="e" width="5.552" height="5.552" transform="translate(2801.157 3456.95)"/><rect class="e" width="5.552" height="5.552" transform="translate(2723.434 3468.053)"/><rect class="e" width="5.552" height="5.552" transform="translate(2734.537 3468.053)"/><rect class="e" width="5.552" height="5.552" transform="translate(2745.641 3468.053)"/><rect class="e" width="5.552" height="5.552" transform="translate(2756.744 3468.053)"/><rect class="e" width="5.552" height="5.552" transform="translate(2767.847 3468.053)"/><rect class="e" width="5.552" height="5.552" transform="translate(2778.95 3468.053)"/><rect class="e" width="5.552" height="5.552" transform="translate(2790.054 3468.053)"/><rect class="e" width="5.552" height="5.552" transform="translate(2801.157 3468.053)"/><rect class="e" width="5.552" height="5.552" transform="translate(2723.434 3479.156)"/><rect class="e" width="5.552" height="5.552" transform="translate(2734.537 3479.156)"/><rect class="e" width="5.552" height="5.552" transform="translate(2745.641 3479.156)"/><rect class="e" width="5.552" height="5.552" transform="translate(2756.744 3479.156)"/><rect class="e" width="5.552" height="5.552" transform="translate(2767.847 3479.156)"/><rect class="e" width="5.552" height="5.552" transform="translate(2778.95 3479.156)"/><rect class="e" width="5.552" height="5.552" transform="translate(2790.054 3479.156)"/><rect class="e" width="5.552" height="5.552" transform="translate(2801.157 3479.156)"/><rect class="e" width="5.552" height="5.552" transform="translate(2723.434 3490.26)"/><rect class="e" width="5.552" height="5.552" transform="translate(2734.537 3490.26)"/><rect class="e" width="5.552" height="5.552" transform="translate(2745.641 3490.26)"/><rect class="e" width="5.552" height="5.552" transform="translate(2756.744 3490.26)"/><rect class="e" width="5.552" height="5.552" transform="translate(2767.847 3490.26)"/><rect class="e" width="5.552" height="5.552" transform="translate(2778.95 3490.26)"/><rect class="e" width="5.552" height="5.552" transform="translate(2790.054 3490.26)"/><rect class="e" width="5.552" height="5.552" transform="translate(2801.157 3490.26)"/><rect class="e" width="5.552" height="5.552" transform="translate(2723.434 3501.363)"/><rect class="e" width="5.552" height="5.552" transform="translate(2734.537 3501.363)"/><rect class="e" width="5.552" height="5.552" transform="translate(2745.641 3501.363)"/><rect class="e" width="5.552" height="5.552" transform="translate(2756.744 3501.363)"/><rect class="e" width="5.552" height="5.552" transform="translate(2767.847 3501.363)"/><rect class="e" width="5.552" height="5.552" transform="translate(2778.95 3501.363)"/><rect class="e" width="5.552" height="5.552" transform="translate(2790.054 3501.363)"/><rect class="e" width="5.552" height="5.552" transform="translate(2801.157 3501.363)"/></g><g transform="translate(-2723.434 -2978.64)"><rect class="e" width="5.552" height="5.552" transform="translate(2723.434 3423.64)"/><rect class="e" width="5.552" height="5.552" transform="translate(2734.537 3423.64)"/><rect class="e" width="5.552" height="5.552" transform="translate(2745.641 3423.64)"/><rect class="e" width="5.552" height="5.552" transform="translate(2756.744 3423.64)"/><rect class="e" width="5.552" height="5.552" transform="translate(2767.847 3423.64)"/><rect class="e" width="5.552" height="5.552" transform="translate(2778.95 3423.64)"/><rect class="e" width="5.552" height="5.552" transform="translate(2790.054 3423.64)"/><rect class="e" width="5.552" height="5.552" transform="translate(2801.157 3423.64)"/><rect class="e" width="5.552" height="5.552" transform="translate(2723.434 3434.743)"/><rect class="e" width="5.552" height="5.552" transform="translate(2734.537 3434.743)"/><rect class="e" width="5.552" height="5.552" transform="translate(2745.641 3434.743)"/><rect class="e" width="5.552" height="5.552" transform="translate(2756.744 3434.743)"/><rect class="e" width="5.552" height="5.552" transform="translate(2767.847 3434.743)"/><rect class="e" width="5.552" height="5.552" transform="translate(2778.95 3434.743)"/><rect class="e" width="5.552" height="5.552" transform="translate(2790.054 3434.743)"/><rect class="e" width="5.552" height="5.552" transform="translate(2801.157 3434.743)"/><rect class="e" width="5.552" height="5.552" transform="translate(2723.434 3445.847)"/><rect class="e" width="5.552" height="5.552" transform="translate(2734.537 3445.847)"/><rect class="e" width="5.552" height="5.552" transform="translate(2745.641 3445.847)"/><rect class="e" width="5.552" height="5.552" transform="translate(2756.744 3445.847)"/><rect class="e" width="5.552" height="5.552" transform="translate(2767.847 3445.847)"/><rect class="e" width="5.552" height="5.552" transform="translate(2778.95 3445.847)"/><rect class="e" width="5.552" height="5.552" transform="translate(2790.054 3445.847)"/><rect class="e" width="5.552" height="5.552" transform="translate(2801.157 3445.847)"/><rect class="e" width="5.552" height="5.552" transform="translate(2723.434 3456.95)"/><rect class="e" width="5.552" height="5.552" transform="translate(2734.537 3456.95)"/><rect class="e" width="5.552" height="5.552" transform="translate(2745.641 3456.95)"/><rect class="e" width="5.552" height="5.552" transform="translate(2756.744 3456.95)"/><rect class="e" width="5.552" height="5.552" transform="translate(2767.847 3456.95)"/><rect class="e" width="5.552" height="5.552" transform="translate(2778.95 3456.95)"/><rect class="e" width="5.552" height="5.552" transform="translate(2790.054 3456.95)"/><rect class="e" width="5.552" height="5.552" transform="translate(2801.157 3456.95)"/><rect class="e" width="5.552" height="5.552" transform="translate(2723.434 3468.053)"/><rect class="e" width="5.552" height="5.552" transform="translate(2734.537 3468.053)"/><rect class="e" width="5.552" height="5.552" transform="translate(2745.641 3468.053)"/><rect class="e" width="5.552" height="5.552" transform="translate(2756.744 3468.053)"/><rect class="e" width="5.552" height="5.552" transform="translate(2767.847 3468.053)"/><rect class="e" width="5.552" height="5.552" transform="translate(2778.95 3468.053)"/><rect class="e" width="5.552" height="5.552" transform="translate(2790.054 3468.053)"/><rect class="e" width="5.552" height="5.552" transform="translate(2801.157 3468.053)"/><rect class="e" width="5.552" height="5.552" transform="translate(2723.434 3479.156)"/><rect class="e" width="5.552" height="5.552" transform="translate(2734.537 3479.156)"/><rect class="e" width="5.552" height="5.552" transform="translate(2745.641 3479.156)"/><rect class="e" width="5.552" height="5.552" transform="translate(2756.744 3479.156)"/><rect class="e" width="5.552" height="5.552" transform="translate(2767.847 3479.156)"/><rect class="e" width="5.552" height="5.552" transform="translate(2778.95 3479.156)"/><rect class="e" width="5.552" height="5.552" transform="translate(2790.054 3479.156)"/><rect class="e" width="5.552" height="5.552" transform="translate(2801.157 3479.156)"/><rect class="e" width="5.552" height="5.552" transform="translate(2723.434 3490.26)"/><rect class="e" width="5.552" height="5.552" transform="translate(2734.537 3490.26)"/><rect class="e" width="5.552" height="5.552" transform="translate(2745.641 3490.26)"/><rect class="e" width="5.552" height="5.552" transform="translate(2756.744 3490.26)"/><rect class="e" width="5.552" height="5.552" transform="translate(2767.847 3490.26)"/><rect class="e" width="5.552" height="5.552" transform="translate(2778.95 3490.26)"/><rect class="e" width="5.552" height="5.552" transform="translate(2790.054 3490.26)"/><rect class="e" width="5.552" height="5.552" transform="translate(2801.157 3490.26)"/><rect class="e" width="5.552" height="5.552" transform="translate(2723.434 3501.363)"/><rect class="e" width="5.552" height="5.552" transform="translate(2734.537 3501.363)"/><rect class="e" width="5.552" height="5.552" transform="translate(2745.641 3501.363)"/><rect class="e" width="5.552" height="5.552" transform="translate(2756.744 3501.363)"/><rect class="e" width="5.552" height="5.552" transform="translate(2767.847 3501.363)"/><rect class="e" width="5.552" height="5.552" transform="translate(2778.95 3501.363)"/><rect class="e" width="5.552" height="5.552" transform="translate(2790.054 3501.363)"/><rect class="e" width="5.552" height="5.552" transform="translate(2801.157 3501.363)"/></g><g transform="translate(-2723.434 -2889.64)"><rect class="e" width="5.552" height="5.552" transform="translate(2723.434 3423.64)"/><rect class="e" width="5.552" height="5.552" transform="translate(2734.537 3423.64)"/><rect class="e" width="5.552" height="5.552" transform="translate(2745.641 3423.64)"/><rect class="e" width="5.552" height="5.552" transform="translate(2756.744 3423.64)"/><rect class="e" width="5.552" height="5.552" transform="translate(2767.847 3423.64)"/><rect class="e" width="5.552" height="5.552" transform="translate(2778.95 3423.64)"/><rect class="e" width="5.552" height="5.552" transform="translate(2790.054 3423.64)"/><rect class="e" width="5.552" height="5.552" transform="translate(2801.157 3423.64)"/><rect class="e" width="5.552" height="5.552" transform="translate(2723.434 3434.743)"/><rect class="e" width="5.552" height="5.552" transform="translate(2734.537 3434.743)"/><rect class="e" width="5.552" height="5.552" transform="translate(2745.641 3434.743)"/><rect class="e" width="5.552" height="5.552" transform="translate(2756.744 3434.743)"/><rect class="e" width="5.552" height="5.552" transform="translate(2767.847 3434.743)"/><rect class="e" width="5.552" height="5.552" transform="translate(2778.95 3434.743)"/><rect class="e" width="5.552" height="5.552" transform="translate(2790.054 3434.743)"/><rect class="e" width="5.552" height="5.552" transform="translate(2801.157 3434.743)"/><rect class="e" width="5.552" height="5.552" transform="translate(2723.434 3445.847)"/><rect class="e" width="5.552" height="5.552" transform="translate(2734.537 3445.847)"/><rect class="e" width="5.552" height="5.552" transform="translate(2745.641 3445.847)"/><rect class="e" width="5.552" height="5.552" transform="translate(2756.744 3445.847)"/><rect class="e" width="5.552" height="5.552" transform="translate(2767.847 3445.847)"/><rect class="e" width="5.552" height="5.552" transform="translate(2778.95 3445.847)"/><rect class="e" width="5.552" height="5.552" transform="translate(2790.054 3445.847)"/><rect class="e" width="5.552" height="5.552" transform="translate(2801.157 3445.847)"/><rect class="e" width="5.552" height="5.552" transform="translate(2723.434 3456.95)"/><rect class="e" width="5.552" height="5.552" transform="translate(2734.537 3456.95)"/><rect class="e" width="5.552" height="5.552" transform="translate(2745.641 3456.95)"/><rect class="e" width="5.552" height="5.552" transform="translate(2756.744 3456.95)"/><rect class="e" width="5.552" height="5.552" transform="translate(2767.847 3456.95)"/><rect class="e" width="5.552" height="5.552" transform="translate(2778.95 3456.95)"/><rect class="e" width="5.552" height="5.552" transform="translate(2790.054 3456.95)"/><rect class="e" width="5.552" height="5.552" transform="translate(2801.157 3456.95)"/><rect class="e" width="5.552" height="5.552" transform="translate(2723.434 3468.053)"/><rect class="e" width="5.552" height="5.552" transform="translate(2734.537 3468.053)"/><rect class="e" width="5.552" height="5.552" transform="translate(2745.641 3468.053)"/><rect class="e" width="5.552" height="5.552" transform="translate(2756.744 3468.053)"/><rect class="e" width="5.552" height="5.552" transform="translate(2767.847 3468.053)"/><rect class="e" width="5.552" height="5.552" transform="translate(2778.95 3468.053)"/><rect class="e" width="5.552" height="5.552" transform="translate(2790.054 3468.053)"/><rect class="e" width="5.552" height="5.552" transform="translate(2801.157 3468.053)"/><rect class="e" width="5.552" height="5.552" transform="translate(2723.434 3479.156)"/><rect class="e" width="5.552" height="5.552" transform="translate(2734.537 3479.156)"/><rect class="e" width="5.552" height="5.552" transform="translate(2745.641 3479.156)"/><rect class="e" width="5.552" height="5.552" transform="translate(2756.744 3479.156)"/><rect class="e" width="5.552" height="5.552" transform="translate(2767.847 3479.156)"/><rect class="e" width="5.552" height="5.552" transform="translate(2778.95 3479.156)"/><rect class="e" width="5.552" height="5.552" transform="translate(2790.054 3479.156)"/><rect class="e" width="5.552" height="5.552" transform="translate(2801.157 3479.156)"/><rect class="e" width="5.552" height="5.552" transform="translate(2723.434 3490.26)"/><rect class="e" width="5.552" height="5.552" transform="translate(2734.537 3490.26)"/><rect class="e" width="5.552" height="5.552" transform="translate(2745.641 3490.26)"/><rect class="e" width="5.552" height="5.552" transform="translate(2756.744 3490.26)"/><rect class="e" width="5.552" height="5.552" transform="translate(2767.847 3490.26)"/><rect class="e" width="5.552" height="5.552" transform="translate(2778.95 3490.26)"/><rect class="e" width="5.552" height="5.552" transform="translate(2790.054 3490.26)"/><rect class="e" width="5.552" height="5.552" transform="translate(2801.157 3490.26)"/><rect class="e" width="5.552" height="5.552" transform="translate(2723.434 3501.363)"/><rect class="e" width="5.552" height="5.552" transform="translate(2734.537 3501.363)"/><rect class="e" width="5.552" height="5.552" transform="translate(2745.641 3501.363)"/><rect class="e" width="5.552" height="5.552" transform="translate(2756.744 3501.363)"/><rect class="e" width="5.552" height="5.552" transform="translate(2767.847 3501.363)"/><rect class="e" width="5.552" height="5.552" transform="translate(2778.95 3501.363)"/><rect class="e" width="5.552" height="5.552" transform="translate(2790.054 3501.363)"/><rect class="e" width="5.552" height="5.552" transform="translate(2801.157 3501.363)"/></g></g></g></svg>